<?xml version="1.0"?>
<svg xmlns="http://www.w3.org/2000/svg" viewBox="0 0 74 74" width="50" height="50"><g id="Numbers"><text transform="translate(31.995 -762.544)" font-size="18" fill="red" font-family="ArialMT, Arial">4<tspan x="-5.005" y="124">14</tspan><tspan x="-5.005" y="248">24</tspan><tspan x="-5.005" y="372">34</tspan><tspan x="-5.005" y="496">44</tspan><tspan x="-5.005" y="620">54</tspan><tspan x="-5.005" y="744">64</tspan><tspan x="-5.005" y="868">74</tspan><tspan x="-5.005" y="992">84</tspan><tspan x="-5.005" y="1116">94</tspan><tspan x="-10.011" y="1240">104</tspan><tspan x="-9.343" y="1364" letter-spacing="-0.074em">1</tspan><tspan x="-0.668" y="1364">14</tspan><tspan x="-10.011" y="1488">124</tspan><tspan x="-10.011" y="1612">134</tspan><tspan x="-10.011" y="1736">144</tspan><tspan x="-10.011" y="1860">154</tspan><tspan x="-10.011" y="1984">164</tspan><tspan x="-10.011" y="2108">174</tspan><tspan x="-10.011" y="2232">184</tspan><tspan x="-10.011" y="2356">194</tspan><tspan x="-10.011" y="2480">204</tspan><tspan x="-10.011" y="2604">214</tspan><tspan x="-10.011" y="2728">224</tspan><tspan x="-10.011" y="2852">234</tspan><tspan x="-10.011" y="2976">244</tspan><tspan x="-10.011" y="3100">254</tspan><tspan x="-10.011" y="3224">264</tspan><tspan x="-10.011" y="3348">274</tspan><tspan x="-10.011" y="3472">284</tspan><tspan x="-10.011" y="3596">294</tspan></text></g><g id="Layer_5" data-name="Layer 5"><path d="M62.781,19.334a.5.5,0,0,1-.416-.222q-.328-.489-.674-.966a.5.5,0,0,1,.809-.589q.358.492.7,1a.5.5,0,0,1-.415.778Z" fill="#323c6b"/><path d="M59.328,15.046a.5.5,0,0,1-.36-.153,30.542,30.542,0,0,0-9.6-6.759.5.5,0,1,1,.408-.913A31.541,31.541,0,0,1,59.688,14.2a.5.5,0,0,1-.36.847Z" fill="#323c6b"/><path d="M61,38h3.92A27.972,27.972,0,0,1,39,63.92V60a2.006,2.006,0,0,0-2-2,2.015,2.015,0,0,0-2,2v3.92A27.972,27.972,0,0,1,9.08,38H13a2.006,2.006,0,0,0,2-2,2.015,2.015,0,0,0-2-2H9.08A27.972,27.972,0,0,1,35,8.08V12a2.015,2.015,0,0,0,2,2,2.006,2.006,0,0,0,2-2V8.08A27.972,27.972,0,0,1,64.92,34H61a2.015,2.015,0,0,0-2,2A2.006,2.006,0,0,0,61,38Z" fill="#ef5261"/><path d="M39,64.42a.5.5,0,0,1-.5-.5V60A1.5,1.5,0,0,0,37,58.5,1.514,1.514,0,0,0,35.5,60v3.92a.5.5,0,0,1-.159.366.491.491,0,0,1-.375.133A28.562,28.562,0,0,1,8.582,38.035a.5.5,0,0,1,.5-.535H13A1.5,1.5,0,0,0,14.5,36,1.514,1.514,0,0,0,13,34.5H9.08a.5.5,0,0,1-.5-.535A28.562,28.562,0,0,1,34.965,7.582a.5.5,0,0,1,.535.5V12A1.514,1.514,0,0,0,37,13.5,1.5,1.5,0,0,0,38.5,12V8.08a.5.5,0,0,1,.535-.5A28.562,28.562,0,0,1,65.418,33.965a.5.5,0,0,1-.5.535H61A1.514,1.514,0,0,0,59.5,36,1.5,1.5,0,0,0,61,37.5h3.92a.5.5,0,0,1,.5.535A28.562,28.562,0,0,1,39.035,64.418ZM37,57.5A2.5,2.5,0,0,1,39.5,60v3.378A27.569,27.569,0,0,0,64.378,38.5H61A2.5,2.5,0,0,1,58.5,36,2.514,2.514,0,0,1,61,33.5h3.378A27.569,27.569,0,0,0,39.5,8.622V12A2.5,2.5,0,0,1,37,14.5,2.514,2.514,0,0,1,34.5,12V8.622A27.569,27.569,0,0,0,9.622,33.5H13A2.514,2.514,0,0,1,15.5,36,2.5,2.5,0,0,1,13,38.5H9.622A27.569,27.569,0,0,0,34.5,63.378V60A2.514,2.514,0,0,1,37,57.5Z" fill="#323c6b"/><path d="M61.92,34h3A27.972,27.972,0,0,0,39,8.08v.38A27.975,27.975,0,0,1,61.92,34Z" fill="#e42542"/><path d="M39,63.54v.38A27.972,27.972,0,0,0,64.92,38h-3A27.975,27.975,0,0,1,39,63.54Z" fill="#e42542"/><circle cx="37" cy="36" r="16.667" fill="#eeefee"/><path d="M37,53.167A17.167,17.167,0,1,1,54.167,36,17.186,17.186,0,0,1,37,53.167Zm0-33.333A16.167,16.167,0,1,0,53.167,36,16.185,16.185,0,0,0,37,19.833Z" fill="#323c6b"/><circle cx="37" cy="36" r="5" fill="#ef5261"/><path d="M37,41.5A5.5,5.5,0,1,1,42.5,36,5.506,5.506,0,0,1,37,41.5Zm0-10A4.5,4.5,0,1,0,41.5,36,4.5,4.5,0,0,0,37,31.5Z" fill="#323c6b"/><path d="M35.513,73.274a.493.493,0,0,1-.149-.023A5.478,5.478,0,0,1,31.5,68V66.625a.5.5,0,0,1,1,0V68a4.484,4.484,0,0,0,3.162,4.3.5.5,0,0,1-.149.977Z" fill="#323c6b"/><path d="M38.146,73.37a.5.5,0,0,1-.112-.987,4.443,4.443,0,0,0,1-.363.5.5,0,1,1,.451.893,5.448,5.448,0,0,1-1.23.445A.5.5,0,0,1,38.146,73.37Z" fill="#323c6b"/><path d="M39,60v8a2.015,2.015,0,0,1-2,2,2.006,2.006,0,0,1-2-2V60a2.015,2.015,0,0,1,2-2A2.006,2.006,0,0,1,39,60Z" fill="#dbd8dd"/><path d="M37,70.5A2.5,2.5,0,0,1,34.5,68V60A2.514,2.514,0,0,1,37,57.5,2.5,2.5,0,0,1,39.5,60v8A2.514,2.514,0,0,1,37,70.5Zm0-12A1.514,1.514,0,0,0,35.5,60v8A1.5,1.5,0,0,0,37,69.5,1.514,1.514,0,0,0,38.5,68V60A1.5,1.5,0,0,0,37,58.5Z" fill="#323c6b"/><path d="M39,4v8a2.006,2.006,0,0,1-2,2,2.015,2.015,0,0,1-2-2V4a2.006,2.006,0,0,1,2-2,2.015,2.015,0,0,1,2,2Z" fill="#dbd8dd"/><path d="M37,14.5A2.514,2.514,0,0,1,34.5,12V4A2.5,2.5,0,0,1,37,1.5,2.514,2.514,0,0,1,39.5,4v8A2.5,2.5,0,0,1,37,14.5Zm0-12A1.5,1.5,0,0,0,35.5,4v8A1.514,1.514,0,0,0,37,13.5,1.5,1.5,0,0,0,38.5,12V4A1.514,1.514,0,0,0,37,2.5Z" fill="#323c6b"/><path d="M15,36a2.006,2.006,0,0,1-2,2H5a2.015,2.015,0,0,1-2-2,2.006,2.006,0,0,1,2-2h8a2.015,2.015,0,0,1,2,2Z" fill="#dbd8dd"/><path d="M13,38.5H5A2.514,2.514,0,0,1,2.5,36,2.5,2.5,0,0,1,5,33.5h8A2.514,2.514,0,0,1,15.5,36,2.5,2.5,0,0,1,13,38.5Zm-8-4A1.5,1.5,0,0,0,3.5,36,1.514,1.514,0,0,0,5,37.5h8A1.5,1.5,0,0,0,14.5,36,1.514,1.514,0,0,0,13,34.5Z" fill="#323c6b"/><path d="M71,36a2.015,2.015,0,0,1-2,2H61a2.006,2.006,0,0,1-2-2,2.015,2.015,0,0,1,2-2h8A2.006,2.006,0,0,1,71,36Z" fill="#dbd8dd"/><path d="M69,38.5H61A2.5,2.5,0,0,1,58.5,36,2.514,2.514,0,0,1,61,33.5h8A2.5,2.5,0,0,1,71.5,36,2.514,2.514,0,0,1,69,38.5Zm-8-4A1.514,1.514,0,0,0,59.5,36,1.5,1.5,0,0,0,61,37.5h8A1.514,1.514,0,0,0,70.5,36,1.5,1.5,0,0,0,69,34.5Z" fill="#323c6b"/><path d="M39,64.42a.5.5,0,0,1-.5-.5V60A1.5,1.5,0,0,0,37,58.5,1.514,1.514,0,0,0,35.5,60v3.92a.5.5,0,0,1-.159.366.491.491,0,0,1-.375.133A28.562,28.562,0,0,1,8.582,38.035a.5.5,0,0,1,.5-.535H13A1.5,1.5,0,0,0,14.5,36,1.514,1.514,0,0,0,13,34.5H9.08a.5.5,0,0,1-.5-.535A28.562,28.562,0,0,1,34.965,7.582a.5.5,0,0,1,.535.5V12A1.514,1.514,0,0,0,37,13.5,1.5,1.5,0,0,0,38.5,12V8.08a.5.5,0,0,1,.535-.5A28.562,28.562,0,0,1,65.418,33.965a.5.5,0,0,1-.5.535H61A1.514,1.514,0,0,0,59.5,36,1.5,1.5,0,0,0,61,37.5h3.92a.5.5,0,0,1,.5.535A28.562,28.562,0,0,1,39.035,64.418ZM37,57.5A2.5,2.5,0,0,1,39.5,60v3.378A27.569,27.569,0,0,0,64.378,38.5H61A2.5,2.5,0,0,1,58.5,36,2.514,2.514,0,0,1,61,33.5h3.378A27.569,27.569,0,0,0,39.5,8.622V12A2.5,2.5,0,0,1,37,14.5,2.514,2.514,0,0,1,34.5,12V8.622A27.569,27.569,0,0,0,9.622,33.5H13A2.514,2.514,0,0,1,15.5,36,2.5,2.5,0,0,1,13,38.5H9.622A27.569,27.569,0,0,0,34.5,63.378V60A2.514,2.514,0,0,1,37,57.5Z" fill="#323c6b"/><g opacity="0.8"><path d="M29.943,15.3c0-.029-.009-.058-.016-.087a1.124,1.124,0,0,0-1.343-.85,5.186,5.186,0,0,0-1.088.307,1.124,1.124,0,1,0,.73,2.125,3.561,3.561,0,0,1,.852-.24A1.124,1.124,0,0,0,29.943,15.3Z" fill="#eeefee"/><path d="M25.145,17.314a1.125,1.125,0,0,0-1.606-.917c-7.146,3.428-8.491,10.749-8.624,11.023a1.124,1.124,0,0,0,2.021.983c.03-.06,1.157-6.9,7.575-9.98A1.124,1.124,0,0,0,25.145,17.314Z" fill="#eeefee"/></g></g></svg>
